<?xml version="1.0" encoding="utf-8"?>
<!-- Generator: Adobe Illustrator 19.1.0, SVG Export Plug-In . SVG Version: 6.00 Build 0)  -->
<svg version="1.1" xmlns="http://www.w3.org/2000/svg" xmlns:xlink="http://www.w3.org/1999/xlink" x="0px" y="0px"
	 viewBox="0 0 300 300" style="enable-background:new 0 0 300 300;" xml:space="preserve">
<g id="designer.svg">
	<g>
		<g>
			<path class="st0" d="M158.8,287.6c-6.9-7.4-10.4-17.2-10.4-28.8c0-11.6,3.4-22.7,10-33.1c4.1-6.6,9.2-12,15-16.1
				c6.1-4.2,12.7-6.7,19.5-7.3c1.9-0.2,3.8-0.2,5.7,0l1.2-2l-28.6-51c-3.9,1.9-8.4,3.6-13.5,5.3c-8.3,2.7-16.7,4-25.1,4
				c-8.4,0-16.8-1.3-25.1-4c-8.3-2.7-15.1-5.7-20.3-9c-5.2-3.3-9.9-6.3-14-9c-4.1-2.7-6.8-4-7.9-4c-7.7,0-14.6,1.3-21,3.8
				c-6.3,2.5-11.7,5.9-16.1,10.1c-4.4,4.2-8.3,9.3-11.7,15.2c-3.4,6-6.1,12.1-8.1,18.3c-2,6.3-3.7,13.1-5,20.4s-2.2,14.2-2.6,20.5
				C0.2,227.2,0,233.6,0,240.3c0,15.1,4.6,26.9,13.7,35.7c9.2,8.7,21.3,13.1,36.5,13.1h110C159.8,288.6,159.3,288.1,158.8,287.6z"/>
			<path class="st0" d="M132.5,144.5c11.6,0,22.2-2.4,31.9-7.2l-1.1-1.9c-1.3-2.3-2-5-2-7.8c0-2.6,0.6-5,1.8-7.3l6.5-13.1
				c2.5-4.7,6.8-7.7,12.2-8.5l0.6-0.1c5.6-0.5,10.7,1.8,14,6.3l0.4,0.5c5.3-10,7.9-21.1,7.9-33.3c0-19.9-7.1-37-21.2-51.1
				C169.5,7.1,152.4,0,132.5,0c-19.9,0-37,7.1-51.1,21.2C67.3,35.3,60.2,52.3,60.2,72.3s7.1,37,21.2,51.1
				C95.5,137.5,112.5,144.5,132.5,144.5z"/>
		</g>
		<path class="st0" d="M229,162l40.2-51.2c1.3-1.9,3.2-2.7,5.7-2.5c2.4,0.3,4.1,1.5,5.2,3.5l6.5,12.9c0.5,0.9,0.7,1.9,0.7,2.9
			c0,1.1-0.3,2.2-0.8,3.1l-39.1,69.7l6.7,11.1c0.3,0.5,0.4,0.9,0.5,1.2c3.3-0.9,6.6-1.3,9.8-1c5.2,0.5,10.2,2.4,14.9,5.7
			c4.7,3.3,8.9,7.7,12.5,13.3c5.7,8.9,8.5,18.2,8.5,28c0,9.2-2.6,16.6-7.9,22.4c-5.7,6.1-12.6,8.7-20.9,8
			c-5.1-0.5-10.1-2.4-14.8-5.7c-4.8-3.3-9-7.7-12.5-13.2c-5.7-8.9-8.5-18.2-8.5-28.1c0-5.6,1-10.7,3.1-15.3
			c-0.9-0.6-1.6-1.3-2.2-2.2l-7.4-12.3l-7.4,12.3c-0.6,0.9-1.3,1.6-2.2,2.2c2.1,4.6,3.1,9.7,3.1,15.3c0,9.8-2.8,19.2-8.5,28.1
			c-3.6,5.5-7.7,9.9-12.5,13.2c-4.8,3.3-9.7,5.2-14.8,5.7c-4,0.3-7.8-0.2-11.4-1.6c-3.6-1.4-6.8-3.5-9.4-6.4c-5.3-5.7-8-13.2-8-22.4
			c0-9.8,2.8-19.1,8.5-28c3.5-5.6,7.6-10,12.4-13.3c4.8-3.3,9.8-5.2,15-5.7c3.2-0.3,6.5,0.1,9.8,1c0.1-0.3,0.2-0.7,0.5-1.2l6.7-11.1
			l-39.1-69.7c-0.5-0.9-0.8-2-0.8-3.1c0-1.1,0.2-2.1,0.7-2.9l6.5-12.9c1.1-2,2.8-3.2,5.2-3.5c2.4-0.2,4.3,0.6,5.7,2.5L229,162z
			 M278,239.4c-3.4-5.5-7.4-9-11.8-10.7c-4.4-1.7-8.1-1-10.9,2.1c-2.4,2.6-3.6,6.4-3.6,11.4c0,6.7,2,13.2,6,19.4
			c3.4,5.5,7.4,9,11.8,10.7c4.4,1.7,8.1,1,10.9-2.1c2.4-2.6,3.6-6.4,3.6-11.4C283.9,252,281.9,245.6,278,239.4z M202.7,230.8
			c-2.8-3.1-6.5-3.8-10.9-2.1c-4.4,1.7-8.4,5.3-11.8,10.7c-4,6.2-6,12.7-6,19.4c0,5,1.2,8.8,3.6,11.4c2.8,3.1,6.5,3.8,10.9,2.1
			c4.4-1.7,8.4-5.3,11.8-10.7c4-6.2,6-12.7,6-19.4C206.3,237.2,205.1,233.4,202.7,230.8z"/>
	</g>
</g>
</svg>
